<mxfile host="app.diagrams.net" modified="2022-07-14T22:31:27.237Z" agent="5.0 (Windows NT 10.0; Win64; x64) AppleWebKit/537.36 (KHTML, like Gecko) Chrome/103.0.5060.114 Safari/537.36 Edg/103.0.1264.49" etag="ulAIwQeJZEdjYjH1iFFP" version="20.1.1" type="github">
  <diagram id="C5RBs43oDa-KdzZeNtuy" name="Page-1">
    <mxGraphModel dx="1422" dy="794" grid="1" gridSize="10" guides="1" tooltips="1" connect="1" arrows="1" fold="1" page="1" pageScale="1" pageWidth="827" pageHeight="1169" math="0" shadow="0">
      <root>
        <mxCell id="WIyWlLk6GJQsqaUBKTNV-0" />
        <mxCell id="WIyWlLk6GJQsqaUBKTNV-1" parent="WIyWlLk6GJQsqaUBKTNV-0" />
        <mxCell id="YwNmZxUHwtI7zJDU8LEG-0" value="" style="fontColor=#0066CC;verticalAlign=top;verticalLabelPosition=bottom;labelPosition=center;align=center;html=1;outlineConnect=0;fillColor=#CCCCCC;strokeColor=#6881B3;gradientColor=none;gradientDirection=north;strokeWidth=2;shape=mxgraph.networks.pc;" vertex="1" parent="WIyWlLk6GJQsqaUBKTNV-1">
          <mxGeometry x="110" y="130" width="160" height="100" as="geometry" />
        </mxCell>
        <mxCell id="YwNmZxUHwtI7zJDU8LEG-1" value="Navegador&lt;br&gt;cliente&lt;br&gt;" style="text;strokeColor=none;fillColor=none;html=1;fontSize=24;fontStyle=1;verticalAlign=middle;align=center;" vertex="1" parent="WIyWlLk6GJQsqaUBKTNV-1">
          <mxGeometry x="150" y="80" width="100" height="40" as="geometry" />
        </mxCell>
        <mxCell id="YwNmZxUHwtI7zJDU8LEG-2" value="FRONT END&lt;br&gt;" style="text;html=1;strokeColor=none;fillColor=none;align=center;verticalAlign=middle;whiteSpace=wrap;rounded=0;" vertex="1" parent="WIyWlLk6GJQsqaUBKTNV-1">
          <mxGeometry x="150" y="240" width="110" height="30" as="geometry" />
        </mxCell>
        <mxCell id="YwNmZxUHwtI7zJDU8LEG-4" value="&lt;span style=&quot;background-color: rgb(102, 255, 255);&quot;&gt;&lt;font color=&quot;#000000&quot;&gt;Nube&lt;/font&gt;&lt;/span&gt;" style="ellipse;shape=cloud;whiteSpace=wrap;html=1;align=center;labelBackgroundColor=#990099;fontColor=#B2C1C6;" vertex="1" parent="WIyWlLk6GJQsqaUBKTNV-1">
          <mxGeometry x="640" y="30" width="100" height="60" as="geometry" />
        </mxCell>
        <mxCell id="YwNmZxUHwtI7zJDU8LEG-15" style="edgeStyle=orthogonalEdgeStyle;rounded=0;orthogonalLoop=1;jettySize=auto;html=1;fontColor=#000000;" edge="1" parent="WIyWlLk6GJQsqaUBKTNV-1" source="YwNmZxUHwtI7zJDU8LEG-5">
          <mxGeometry relative="1" as="geometry">
            <mxPoint x="690" y="90" as="targetPoint" />
            <Array as="points">
              <mxPoint x="670" y="120" />
            </Array>
          </mxGeometry>
        </mxCell>
        <mxCell id="YwNmZxUHwtI7zJDU8LEG-5" value="&lt;blockquote style=&quot;margin: 0 0 0 40px; border: none; padding: 0px;&quot;&gt;WEB SERVER&lt;/blockquote&gt;&lt;blockquote style=&quot;margin: 0 0 0 40px; border: none; padding: 0px;&quot;&gt;&lt;br&gt;&lt;/blockquote&gt;" style="points=[[0,0],[0.25,0],[0.5,0],[0.75,0],[1,0],[1,0.25],[1,0.5],[1,0.75],[1,1],[0.75,1],[0.5,1],[0.25,1],[0,1],[0,0.75],[0,0.5],[0,0.25]];outlineConnect=0;gradientColor=none;html=1;whiteSpace=wrap;fontSize=12;fontStyle=0;container=1;pointerEvents=0;collapsible=0;recursiveResize=0;shape=mxgraph.aws4.group;grIcon=mxgraph.aws4.group_on_premise;strokeColor=#5A6C86;fillColor=none;verticalAlign=top;align=left;spacingLeft=30;fontColor=#5A6C86;dashed=0;labelBackgroundColor=#FFFFFF;" vertex="1" parent="WIyWlLk6GJQsqaUBKTNV-1">
          <mxGeometry x="550" y="130" width="240" height="162" as="geometry" />
        </mxCell>
        <mxCell id="YwNmZxUHwtI7zJDU8LEG-6" value="&lt;ul&gt;&lt;li&gt;Header&lt;/li&gt;&lt;li&gt;Acerca de...&lt;/li&gt;&lt;li&gt;Experiencia&lt;/li&gt;&lt;li&gt;Educacion&lt;/li&gt;&lt;li&gt;Etc.&lt;/li&gt;&lt;/ul&gt;" style="text;html=1;strokeColor=none;fillColor=none;align=left;verticalAlign=middle;whiteSpace=wrap;rounded=0;labelBackgroundColor=#FFFFFF;fontColor=#000000;" vertex="1" parent="YwNmZxUHwtI7zJDU8LEG-5">
          <mxGeometry x="10" y="90" width="154" height="30" as="geometry" />
        </mxCell>
        <mxCell id="YwNmZxUHwtI7zJDU8LEG-7" value="" style="dashed=0;outlineConnect=0;html=1;align=center;labelPosition=center;verticalLabelPosition=bottom;verticalAlign=top;shape=mxgraph.weblogos.html5;labelBackgroundColor=#FFFFFF;fontColor=#000000;" vertex="1" parent="YwNmZxUHwtI7zJDU8LEG-5">
          <mxGeometry x="140" y="98" width="32.4" height="52" as="geometry" />
        </mxCell>
        <mxCell id="YwNmZxUHwtI7zJDU8LEG-8" value="" style="shape=image;html=1;verticalAlign=top;verticalLabelPosition=bottom;labelBackgroundColor=#ffffff;imageAspect=0;aspect=fixed;image=https://cdn1.iconfinder.com/data/icons/bootstrap-vol-3/16/filetype-css-128.png;fontColor=#000000;" vertex="1" parent="YwNmZxUHwtI7zJDU8LEG-5">
          <mxGeometry x="190" y="100" width="50" height="50" as="geometry" />
        </mxCell>
        <mxCell id="YwNmZxUHwtI7zJDU8LEG-9" value="" style="shape=image;html=1;verticalAlign=top;verticalLabelPosition=bottom;labelBackgroundColor=#ffffff;imageAspect=0;aspect=fixed;image=https://cdn1.iconfinder.com/data/icons/ionicons-fill-vol-2/512/logo-javascript-128.png;fontColor=#000000;" vertex="1" parent="YwNmZxUHwtI7zJDU8LEG-5">
          <mxGeometry x="190" y="40" width="50" height="50" as="geometry" />
        </mxCell>
        <mxCell id="YwNmZxUHwtI7zJDU8LEG-12" value="" style="shape=image;html=1;verticalAlign=top;verticalLabelPosition=bottom;labelBackgroundColor=#ffffff;imageAspect=0;aspect=fixed;image=https://cdn0.iconfinder.com/data/icons/long-shadow-web-icons/512/boostrap-128.png;fontColor=#000000;" vertex="1" parent="YwNmZxUHwtI7zJDU8LEG-5">
          <mxGeometry x="200" width="40" height="40" as="geometry" />
        </mxCell>
        <mxCell id="YwNmZxUHwtI7zJDU8LEG-20" value="&lt;p style=&quot;line-height: 0;&quot;&gt;Front&lt;/p&gt;" style="text;strokeColor=none;fillColor=none;html=1;fontSize=24;fontStyle=1;verticalAlign=middle;align=center;labelBackgroundColor=#FFFFFF;fontColor=#000000;" vertex="1" parent="YwNmZxUHwtI7zJDU8LEG-5">
          <mxGeometry x="70" y="40" width="80" height="10" as="geometry" />
        </mxCell>
        <mxCell id="YwNmZxUHwtI7zJDU8LEG-11" value="" style="shape=image;html=1;verticalAlign=top;verticalLabelPosition=bottom;labelBackgroundColor=#ffffff;imageAspect=0;aspect=fixed;image=https://cdn1.iconfinder.com/data/icons/ionicons-fill-vol-2/512/logo-firebase-128.png;fontColor=#000000;" vertex="1" parent="WIyWlLk6GJQsqaUBKTNV-1">
          <mxGeometry x="580" y="75" width="50" height="50" as="geometry" />
        </mxCell>
        <mxCell id="YwNmZxUHwtI7zJDU8LEG-19" style="edgeStyle=orthogonalEdgeStyle;rounded=0;orthogonalLoop=1;jettySize=auto;html=1;exitX=0.5;exitY=1;exitDx=0;exitDy=0;entryX=0.75;entryY=1;entryDx=0;entryDy=0;fontColor=#000000;" edge="1" parent="WIyWlLk6GJQsqaUBKTNV-1" source="YwNmZxUHwtI7zJDU8LEG-11" target="YwNmZxUHwtI7zJDU8LEG-11">
          <mxGeometry relative="1" as="geometry" />
        </mxCell>
        <mxCell id="YwNmZxUHwtI7zJDU8LEG-23" value="" style="points=[[0,0],[0.25,0],[0.5,0],[0.75,0],[1,0],[1,0.25],[1,0.5],[1,0.75],[1,1],[0.75,1],[0.5,1],[0.25,1],[0,1],[0,0.75],[0,0.5],[0,0.25]];outlineConnect=0;gradientColor=none;html=1;whiteSpace=wrap;fontSize=12;fontStyle=0;container=1;pointerEvents=0;collapsible=0;recursiveResize=0;shape=mxgraph.aws4.group;grIcon=mxgraph.aws4.group_on_premise;strokeColor=#5A6C86;fillColor=none;verticalAlign=top;align=right;spacingLeft=30;fontColor=#5A6C86;dashed=0;labelBackgroundColor=#FFFFFF;" vertex="1" parent="WIyWlLk6GJQsqaUBKTNV-1">
          <mxGeometry x="560" y="360" width="240" height="150" as="geometry" />
        </mxCell>
        <mxCell id="YwNmZxUHwtI7zJDU8LEG-26" value="&lt;blockquote style=&quot;margin: 0px 0px 0px 40px; border: none; padding: 0px;&quot;&gt;WEB SERVER&lt;/blockquote&gt;&lt;blockquote style=&quot;margin: 0px 0px 0px 40px; border: none; padding: 0px;&quot;&gt;&lt;br style=&quot;color: rgb(90, 108, 134); font-family: Helvetica; font-size: 12px; font-style: normal; font-variant-ligatures: normal; font-variant-caps: normal; font-weight: 400; letter-spacing: normal; orphans: 2; text-align: left; text-indent: 0px; text-transform: none; widows: 2; word-spacing: 0px; -webkit-text-stroke-width: 0px; background-color: rgb(255, 255, 255); text-decoration-thickness: initial; text-decoration-style: initial; text-decoration-color: initial;&quot;&gt;&#xa;&#xa;&lt;/blockquote&gt;" style="text;whiteSpace=wrap;html=1;fontColor=#000000;" vertex="1" parent="YwNmZxUHwtI7zJDU8LEG-23">
          <mxGeometry x="45" width="150" height="30" as="geometry" />
        </mxCell>
        <mxCell id="YwNmZxUHwtI7zJDU8LEG-27" value="Back&lt;br&gt;" style="text;strokeColor=none;fillColor=none;html=1;fontSize=24;fontStyle=1;verticalAlign=middle;align=center;labelBackgroundColor=#FFFFFF;fontColor=#000000;" vertex="1" parent="YwNmZxUHwtI7zJDU8LEG-23">
          <mxGeometry x="69.99999999999997" y="20" width="100" height="40" as="geometry" />
        </mxCell>
        <mxCell id="YwNmZxUHwtI7zJDU8LEG-28" value="" style="shape=image;html=1;verticalAlign=top;verticalLabelPosition=bottom;labelBackgroundColor=#ffffff;imageAspect=0;aspect=fixed;image=https://cdn1.iconfinder.com/data/icons/ionicons-fill-vol-2/512/logo-javascript-128.png;fontColor=#000000;" vertex="1" parent="YwNmZxUHwtI7zJDU8LEG-23">
          <mxGeometry x="190" y="100" width="50" height="50" as="geometry" />
        </mxCell>
        <mxCell id="YwNmZxUHwtI7zJDU8LEG-29" value="&lt;span style=&quot;color: rgb(0, 0, 0); font-family: arial, sans-serif; font-size: 16px; font-style: normal; font-variant-ligatures: normal; font-variant-caps: normal; font-weight: 400; letter-spacing: normal; orphans: 2; text-align: start; text-indent: 0px; text-transform: none; widows: 2; word-spacing: 0px; -webkit-text-stroke-width: 0px; background-color: rgb(255, 255, 255); text-decoration-thickness: initial; text-decoration-style: initial; text-decoration-color: initial; float: none; display: inline !important;&quot;&gt;HTTP&lt;/span&gt;" style="text;whiteSpace=wrap;html=1;fontColor=#000000;" vertex="1" parent="WIyWlLk6GJQsqaUBKTNV-1">
          <mxGeometry x="680" y="310" width="70" height="30" as="geometry" />
        </mxCell>
        <mxCell id="YwNmZxUHwtI7zJDU8LEG-30" value="&lt;span style=&quot;background-color: rgb(102, 255, 255);&quot;&gt;&lt;font color=&quot;#000000&quot;&gt;Nube&lt;/font&gt;&lt;/span&gt;" style="ellipse;shape=cloud;whiteSpace=wrap;html=1;align=center;labelBackgroundColor=#990099;fontColor=#B2C1C6;" vertex="1" parent="WIyWlLk6GJQsqaUBKTNV-1">
          <mxGeometry x="450" y="300" width="100" height="60" as="geometry" />
        </mxCell>
        <mxCell id="YwNmZxUHwtI7zJDU8LEG-33" value="" style="endArrow=classic;startArrow=classic;html=1;rounded=1;fontColor=#000000;entryX=0.5;entryY=1;entryDx=0;entryDy=0;exitX=0.44;exitY=0;exitDx=0;exitDy=0;exitPerimeter=0;" edge="1" parent="WIyWlLk6GJQsqaUBKTNV-1" source="YwNmZxUHwtI7zJDU8LEG-26" target="YwNmZxUHwtI7zJDU8LEG-5">
          <mxGeometry width="50" height="50" relative="1" as="geometry">
            <mxPoint x="645" y="360" as="sourcePoint" />
            <mxPoint x="695" y="310" as="targetPoint" />
          </mxGeometry>
        </mxCell>
        <mxCell id="YwNmZxUHwtI7zJDU8LEG-38" value="" style="points=[[0,0],[0.25,0],[0.5,0],[0.75,0],[1,0],[1,0.25],[1,0.5],[1,0.75],[1,1],[0.75,1],[0.5,1],[0.25,1],[0,1],[0,0.75],[0,0.5],[0,0.25]];outlineConnect=0;gradientColor=none;html=1;whiteSpace=wrap;fontSize=12;fontStyle=0;container=1;pointerEvents=0;collapsible=0;recursiveResize=0;shape=mxgraph.aws4.group;grIcon=mxgraph.aws4.group_on_premise;strokeColor=#5A6C86;fillColor=none;verticalAlign=top;align=right;spacingLeft=30;fontColor=#5A6C86;dashed=0;labelBackgroundColor=#FFFFFF;" vertex="1" parent="WIyWlLk6GJQsqaUBKTNV-1">
          <mxGeometry x="560" y="560" width="240" height="120" as="geometry" />
        </mxCell>
        <mxCell id="YwNmZxUHwtI7zJDU8LEG-39" value="&lt;blockquote style=&quot;margin: 0px 0px 0px 40px; border: none; padding: 0px;&quot;&gt;BD SERVER&lt;/blockquote&gt;&lt;blockquote style=&quot;margin: 0px 0px 0px 40px; border: none; padding: 0px;&quot;&gt;&lt;br style=&quot;color: rgb(90, 108, 134); font-family: Helvetica; font-size: 12px; font-style: normal; font-variant-ligatures: normal; font-variant-caps: normal; font-weight: 400; letter-spacing: normal; orphans: 2; text-align: left; text-indent: 0px; text-transform: none; widows: 2; word-spacing: 0px; -webkit-text-stroke-width: 0px; background-color: rgb(255, 255, 255); text-decoration-thickness: initial; text-decoration-style: initial; text-decoration-color: initial;&quot;&gt;&lt;br&gt;&lt;br&gt;&lt;/blockquote&gt;" style="text;whiteSpace=wrap;html=1;fontColor=#000000;" vertex="1" parent="YwNmZxUHwtI7zJDU8LEG-38">
          <mxGeometry x="45" width="150" height="30" as="geometry" />
        </mxCell>
        <mxCell id="YwNmZxUHwtI7zJDU8LEG-37" value="" style="sketch=0;outlineConnect=0;fontColor=#232F3E;gradientColor=none;fillColor=#2E27AD;strokeColor=none;dashed=0;verticalLabelPosition=bottom;verticalAlign=top;align=center;html=1;fontSize=12;fontStyle=0;aspect=fixed;pointerEvents=1;shape=mxgraph.aws4.rds_mysql_instance;labelBackgroundColor=#FFFFFF;" vertex="1" parent="YwNmZxUHwtI7zJDU8LEG-38">
          <mxGeometry x="170" y="50" width="70" height="70" as="geometry" />
        </mxCell>
        <mxCell id="YwNmZxUHwtI7zJDU8LEG-42" value="&lt;span style=&quot;background-color: rgb(102, 255, 255);&quot;&gt;&lt;font color=&quot;#000000&quot;&gt;Nube&lt;/font&gt;&lt;/span&gt;" style="ellipse;shape=cloud;whiteSpace=wrap;html=1;align=center;labelBackgroundColor=#990099;fontColor=#B2C1C6;" vertex="1" parent="WIyWlLk6GJQsqaUBKTNV-1">
          <mxGeometry x="450" y="500" width="100" height="60" as="geometry" />
        </mxCell>
        <mxCell id="YwNmZxUHwtI7zJDU8LEG-43" value="" style="endArrow=classic;startArrow=classic;html=1;rounded=1;fontColor=#000000;exitX=0.5;exitY=0;exitDx=0;exitDy=0;" edge="1" parent="WIyWlLk6GJQsqaUBKTNV-1" source="YwNmZxUHwtI7zJDU8LEG-39" target="YwNmZxUHwtI7zJDU8LEG-23">
          <mxGeometry width="50" height="50" relative="1" as="geometry">
            <mxPoint x="670" y="560" as="sourcePoint" />
            <mxPoint x="720" y="510" as="targetPoint" />
            <Array as="points" />
          </mxGeometry>
        </mxCell>
        <mxCell id="YwNmZxUHwtI7zJDU8LEG-44" value="" style="shape=image;html=1;verticalAlign=top;verticalLabelPosition=bottom;labelBackgroundColor=#ffffff;imageAspect=0;aspect=fixed;image=https://cdn2.iconfinder.com/data/icons/boxicons-logos/24/bxl-heroku-128.png;fontColor=#000000;" vertex="1" parent="WIyWlLk6GJQsqaUBKTNV-1">
          <mxGeometry x="580" y="320" width="40" height="40" as="geometry" />
        </mxCell>
        <mxCell id="YwNmZxUHwtI7zJDU8LEG-45" value="" style="shape=image;html=1;verticalAlign=top;verticalLabelPosition=bottom;labelBackgroundColor=#ffffff;imageAspect=0;aspect=fixed;image=https://cdn2.iconfinder.com/data/icons/boxicons-logos/24/bxl-heroku-128.png;fontColor=#000000;" vertex="1" parent="WIyWlLk6GJQsqaUBKTNV-1">
          <mxGeometry x="580" y="520" width="40" height="40" as="geometry" />
        </mxCell>
        <mxCell id="YwNmZxUHwtI7zJDU8LEG-46" value="" style="endArrow=classic;startArrow=classic;html=1;rounded=1;fontColor=#000000;exitX=1;exitY=0.5;exitDx=0;exitDy=0;exitPerimeter=0;" edge="1" parent="WIyWlLk6GJQsqaUBKTNV-1" source="YwNmZxUHwtI7zJDU8LEG-0" target="YwNmZxUHwtI7zJDU8LEG-5">
          <mxGeometry width="50" height="50" relative="1" as="geometry">
            <mxPoint x="350" y="205" as="sourcePoint" />
            <mxPoint x="540" y="211" as="targetPoint" />
            <Array as="points">
              <mxPoint x="430" y="190" />
            </Array>
          </mxGeometry>
        </mxCell>
        <mxCell id="YwNmZxUHwtI7zJDU8LEG-48" value="" style="curved=1;endArrow=classic;html=1;rounded=1;fontColor=#000000;entryX=0;entryY=0.5;entryDx=0;entryDy=0;" edge="1" parent="WIyWlLk6GJQsqaUBKTNV-1" target="YwNmZxUHwtI7zJDU8LEG-23">
          <mxGeometry width="50" height="50" relative="1" as="geometry">
            <mxPoint x="500" y="360" as="sourcePoint" />
            <mxPoint x="550" y="360" as="targetPoint" />
            <Array as="points">
              <mxPoint x="550" y="410" />
              <mxPoint x="500" y="360" />
            </Array>
          </mxGeometry>
        </mxCell>
        <mxCell id="YwNmZxUHwtI7zJDU8LEG-50" value="" style="endArrow=classic;html=1;rounded=1;fontColor=#000000;" edge="1" parent="WIyWlLk6GJQsqaUBKTNV-1" source="YwNmZxUHwtI7zJDU8LEG-42" target="YwNmZxUHwtI7zJDU8LEG-38">
          <mxGeometry width="50" height="50" relative="1" as="geometry">
            <mxPoint x="410" y="600" as="sourcePoint" />
            <mxPoint x="490" y="570" as="targetPoint" />
            <Array as="points">
              <mxPoint x="500" y="580" />
            </Array>
          </mxGeometry>
        </mxCell>
      </root>
    </mxGraphModel>
  </diagram>
</mxfile>
